<svg width="724" height="393" viewBox="0 0 724 393" fill="none" xmlns="http://www.w3.org/2000/svg">
<path d="M1.21875 194.736C6.98612 198.746 21.1162 203.158 31.4975 188.72C44.474 170.673 56.5855 150.371 70.4272 160.146C84.2689 169.921 85.134 173.681 97.2455 169.169C109.357 164.658 113.683 172.177 115.413 173.681C117.143 175.185 128.389 187.216 137.04 179.697C145.691 172.177 152.612 170.673 159.533 172.929C166.454 175.185 180.296 186.464 195.002 174.433C209.709 162.402 214.9 158.642 225.281 158.642C233.586 158.642 245.467 158.642 250.369 158.642C256.425 157.89 269.748 155.033 274.592 149.619C280.648 142.851 290.164 121.044 297.95 121.044C305.736 121.044 313.522 136.835 314.387 138.339C315.252 139.843 323.903 151.123 328.229 151.123C332.554 151.123 336.88 151.874 343.801 138.339C350.722 124.804 358.507 106.757 361.968 103.75C365.428 100.742 370.619 99.2379 376.675 103.75C381.519 107.359 389.075 118.287 392.247 123.301C395 127.079 402.848 134.36 412.211 133.258C423.914 131.881 434.241 118.113 438.371 111.917C442.502 105.722 448.698 105.722 451.452 106.41C454.268 107.114 458.198 110.172 465.909 121.044C475.547 134.635 488.627 126.375 494.823 109.852C501.018 93.33 511.345 69.9228 515.475 65.1038C519.606 60.2848 527.867 50.6468 540.259 63.7269C552.651 76.8071 556.781 96.7721 564.354 103.75C569.984 108.937 585.007 111.917 592.58 92.6412C600.152 73.3652 597.735 71.4763 602.218 69.235C609.102 65.7928 611.392 75.7341 625.624 71.9887C638.704 68.5465 648.342 62.3503 649.031 41.009C649.719 19.6677 649.623 11.147 652.473 6.58753C655.915 1.08026 668.307 -3.05048 675.191 10.0297C682.075 23.1098 680.01 60.9737 695.844 65.1041C708.511 68.4085 718.562 53.1713 722.004 45.1397" stroke="#AF46FF" stroke-width="2.22222"/>
<path d="M31.4975 188.72C21.1162 203.158 6.98612 198.746 1.21875 194.736V392.797H722.004V45.1397C718.562 53.1713 708.511 68.4085 695.844 65.1041C680.01 60.9737 682.075 23.1098 675.191 10.0297C668.307 -3.05048 655.915 1.08026 652.473 6.58753C649.623 11.147 649.719 19.6677 649.031 41.009C648.342 62.3503 638.704 68.5465 625.624 71.9887C611.392 75.7341 609.102 65.7928 602.218 69.235C597.735 71.4763 600.152 73.3652 592.58 92.6412C585.007 111.917 569.984 108.937 564.354 103.75C556.781 96.7721 552.651 76.8071 540.259 63.7269C527.867 50.6468 519.606 60.2848 515.475 65.1038C511.345 69.9228 501.018 93.33 494.823 109.852C488.627 126.375 475.547 134.635 465.909 121.044C458.198 110.172 454.268 107.114 451.452 106.41C448.698 105.722 442.502 105.722 438.371 111.917C434.241 118.113 423.914 131.881 412.211 133.258C402.848 134.36 395 127.079 392.247 123.301C389.075 118.287 381.519 107.359 376.675 103.75C370.619 99.2379 365.428 100.742 361.968 103.75C358.508 106.757 350.722 124.804 343.801 138.339C336.88 151.874 332.554 151.123 328.229 151.123C323.903 151.123 315.252 139.843 314.387 138.339C313.522 136.835 305.736 121.044 297.95 121.044C290.164 121.044 280.648 142.851 274.592 149.619C269.748 155.033 256.425 157.89 250.369 158.642H225.281C214.9 158.642 209.709 162.402 195.002 174.433C180.296 186.464 166.454 175.185 159.533 172.929C152.612 170.673 145.691 172.177 137.04 179.697C128.389 187.216 117.143 175.185 115.413 173.681C113.683 172.177 109.357 164.658 97.2455 169.169C85.134 173.681 84.2689 169.921 70.4272 160.146C56.5855 150.371 44.474 170.673 31.4975 188.72Z" fill="url(#paint0_linear_279_142692)" fill-opacity="0.4"/>
<defs>
<linearGradient id="paint0_linear_279_142692" x1="361.612" y1="63.8609" x2="361.612" y2="348.953" gradientUnits="userSpaceOnUse">
<stop offset="0.255508" stop-color="#AF46FF"/>
<stop offset="1" stop-color="#AF46FF" stop-opacity="0"/>
</linearGradient>
</defs>
</svg>
