<svg width="14" height="14" viewBox="0 0 14 14" fill="none" xmlns="http://www.w3.org/2000/svg">
<path d="M6.99999 0.466667L6.87178 0.0179555C6.95558 -0.00598516 7.04439 -0.00598516 7.12819 0.0179555L6.99999 0.466667ZM13.5333 2.33333L13.6615 1.88462C13.8804 1.94718 14.0223 2.15858 13.9971 2.38487L13.5333 2.33333ZM12.6 10.7333L13.0638 10.7849C13.0463 10.9422 12.9503 11.08 12.8087 11.1507L12.6 10.7333ZM6.99999 13.5333L7.20869 13.9507C7.0773 14.0164 6.92267 14.0164 6.79128 13.9507L6.99999 13.5333ZM1.39999 10.7333L1.1913 11.1507C1.04972 11.08 0.953676 10.9422 0.936223 10.7849L1.39999 10.7333ZM0.466663 2.33333L0.00289154 2.38487C-0.0223093 2.15858 0.119557 1.94718 0.338424 1.88462L0.466663 2.33333ZM6.99999 2.8L6.57245 2.61295L6.99999 1.63571L7.42753 2.61295L6.99999 2.8ZM7.12819 0.0179555L13.6615 1.88462L13.4051 2.78204L6.87178 0.915378L7.12819 0.0179555ZM13.9971 2.38487L13.0638 10.7849L12.1362 10.6818L13.0695 2.28179L13.9971 2.38487ZM12.8087 11.1507L7.20869 13.9507L6.79128 13.1159L12.3913 10.3159L12.8087 11.1507ZM6.79128 13.9507L1.1913 11.1507L1.60869 10.3159L7.20869 13.1159L6.79128 13.9507ZM0.936223 10.7849L0.00289154 2.38487L0.930435 2.28179L1.86377 10.6818L0.936223 10.7849ZM0.338424 1.88462L6.87178 0.0179555L7.12819 0.915378L0.594903 2.78204L0.338424 1.88462ZM9.83911 10.4537L6.57245 2.98705L7.42753 2.61295L10.6942 10.0796L9.83911 10.4537ZM7.42753 2.98705L4.16088 10.4537L3.30577 10.0796L6.57245 2.61295L7.42753 2.98705ZM9.33332 8.4H4.66666V7.46667H9.33332V8.4Z" fill="white" fill-opacity="0.6"/>
</svg>
