<svg width="22" height="22" viewBox="0 0 22 22" fill="none" xmlns="http://www.w3.org/2000/svg">
<circle cx="11" cy="11" r="11" fill="white"/>
<g clip-path="url(#clip0_308_77)">
<path d="M11.0003 1.04761C5.5044 1.04761 1.04785 5.53451 1.04785 11.0695C1.04785 15.4975 3.89952 19.2541 7.85395 20.5793C8.35132 20.6721 8.53395 20.3619 8.53395 20.0972C8.53395 19.8583 8.52466 19.0687 8.52047 18.2313C5.7516 18.8375 5.16737 17.0488 5.16737 17.0488C4.71465 15.8905 4.06234 15.5825 4.06234 15.5825C3.1594 14.9605 4.13041 14.9732 4.13041 14.9732C5.12982 15.0439 5.65605 16.006 5.65605 16.006C6.54372 17.5381 7.98429 17.0951 8.55224 16.8392C8.64152 16.1913 8.89949 15.7493 9.18409 15.499C6.97358 15.2456 4.64971 14.3862 4.64971 10.5461C4.64971 9.45201 5.0385 8.55792 5.67521 7.85609C5.57183 7.60363 5.23121 6.58434 5.77158 5.20388C5.77158 5.20388 6.60733 4.93454 8.50923 6.23121C9.30306 6.00909 10.1544 5.89779 11.0003 5.89401C11.8461 5.89779 12.6981 6.00909 13.4935 6.23121C15.3931 4.93454 16.2277 5.20388 16.2277 5.20388C16.7694 6.58434 16.4286 7.60363 16.3253 7.85609C16.9634 8.55792 17.3495 9.45192 17.3495 10.5461C17.3495 14.3953 15.0213 15.243 12.8051 15.491C13.1621 15.802 13.4802 16.412 13.4802 17.3469C13.4802 18.6878 13.4686 19.7671 13.4686 20.0972C13.4686 20.3639 13.6477 20.6764 14.1523 20.578C18.1045 19.2513 20.9526 15.496 20.9526 11.0695C20.9526 5.53451 16.4967 1.04761 11.0003 1.04761Z" fill="black"/>
<path d="M4.77535 15.324C4.7535 15.3738 4.6756 15.3887 4.6048 15.3546C4.5326 15.3219 4.49201 15.254 4.51543 15.204C4.53689 15.1527 4.61479 15.1384 4.68684 15.1728C4.7592 15.2055 4.80041 15.274 4.77535 15.324ZM5.26492 15.7638C5.21744 15.8082 5.12465 15.7876 5.06166 15.7175C4.99656 15.6477 4.98438 15.5543 5.03254 15.5093C5.08148 15.465 5.17148 15.4857 5.23672 15.5557C5.30183 15.6263 5.31456 15.719 5.26492 15.7638ZM5.60077 16.3266C5.53973 16.3693 5.44 16.3293 5.37842 16.2402C5.31746 16.1511 5.31746 16.0442 5.37975 16.0014C5.44153 15.9585 5.53973 15.9971 5.60218 16.0855C5.66306 16.1761 5.66314 16.2829 5.60077 16.3266ZM6.16872 16.9784C6.11415 17.039 5.998 17.0228 5.9129 16.9401C5.82599 16.8593 5.80169 16.7446 5.85642 16.684C5.91158 16.6233 6.02843 16.6404 6.11415 16.7224C6.20057 16.803 6.22686 16.9186 6.16872 16.9784ZM6.90275 17.1985C6.87878 17.277 6.76686 17.3127 6.65415 17.2793C6.54156 17.245 6.46787 17.153 6.4906 17.0737C6.51403 16.9947 6.62641 16.9576 6.73999 16.9932C6.85241 17.0274 6.92614 17.1187 6.90275 17.1985ZM7.73825 17.2918C7.74103 17.3745 7.64545 17.4431 7.5271 17.4445C7.40808 17.4471 7.31184 17.3803 7.31059 17.299C7.31059 17.2155 7.40402 17.1476 7.52295 17.1456C7.6413 17.1433 7.73825 17.2097 7.73825 17.2918ZM8.55891 17.2602C8.57309 17.3408 8.49082 17.4237 8.37338 17.4457C8.25785 17.4669 8.1509 17.4171 8.13614 17.3372C8.12179 17.2545 8.20564 17.1717 8.32092 17.1503C8.43861 17.1297 8.5439 17.1782 8.55891 17.2602Z" fill="#161614"/>
</g>
<defs>
<clipPath id="clip0_308_77">
<rect width="19.9048" height="19.9048" fill="white" transform="translate(1.04785 1.04761)"/>
</clipPath>
</defs>
</svg>
