<svg width="23" height="23" viewBox="0 0 23 23" fill="none" xmlns="http://www.w3.org/2000/svg">
<circle cx="11.5" cy="11.5" r="11" fill="black" stroke="white"/>
<path fill-rule="evenodd" clip-rule="evenodd" d="M16 16H14.1508V12.8504C14.1508 11.9868 13.8227 11.5042 13.1392 11.5042C12.3956 11.5042 12.0071 12.0064 12.0071 12.8504V16H10.225V10H12.0071V10.8082C12.0071 10.8082 12.543 9.81669 13.8162 9.81669C15.0889 9.81669 16 10.5939 16 12.2012V16ZM8.09893 9.21435C7.49189 9.21435 7 8.71859 7 8.10717C7 7.49575 7.49189 7 8.09893 7C8.70596 7 9.19756 7.49575 9.19756 8.10717C9.19756 8.71859 8.70596 9.21435 8.09893 9.21435ZM7.17871 16H9.03701V10H7.17871V16Z" fill="white"/>
</svg>
