<svg width="23" height="23" viewBox="0 0 23 23" fill="none" xmlns="http://www.w3.org/2000/svg">
<path d="M22.5 11.5C22.5 17.5751 17.5751 22.5 11.5 22.5C5.42487 22.5 0.5 17.5751 0.5 11.5C0.5 5.42487 5.42487 0.5 11.5 0.5C17.5751 0.5 22.5 5.42487 22.5 11.5Z" fill="black" stroke="white"/>
<path d="M17.9998 11.5831C17.9707 10.835 17.3107 10.2508 16.5223 10.2762C16.1729 10.2878 15.8406 10.424 15.5884 10.6525C14.4772 9.93213 13.172 9.53724 11.8303 9.50958L12.4634 6.61184L14.5523 7.02984C14.6104 7.54011 15.0908 7.90961 15.627 7.85408C16.1631 7.79876 16.5514 7.34154 16.493 6.83126C16.4347 6.32099 15.9545 5.95149 15.4183 6.00702C15.1101 6.03695 14.8336 6.20787 14.6809 6.46197L12.2888 6.00702C12.1264 5.97234 11.9637 6.06936 11.9273 6.22645C11.9273 6.22872 11.9273 6.22872 11.9273 6.23099L11.2067 9.45426C9.84814 9.47511 8.52597 9.87226 7.40031 10.5972C6.82771 10.0847 5.92523 10.1101 5.38669 10.6573C4.84815 11.2022 4.87483 12.0612 5.44981 12.5737C5.5615 12.673 5.6899 12.7585 5.83305 12.8185C5.82329 12.9548 5.82329 13.091 5.83305 13.2272C5.83305 15.3076 8.38044 17 11.5221 17C14.6638 17 17.2112 15.3098 17.2112 13.2272C17.2209 13.091 17.2209 12.9548 17.2112 12.8185C17.7013 12.5853 18.0095 12.1049 17.9998 11.5831ZM8.23968 12.5136C8.23968 12.0011 8.67888 11.5831 9.21742 11.5831C9.75596 11.5831 10.1952 12.0011 10.1952 12.5136C10.1952 13.0262 9.75596 13.4442 9.21742 13.4442C8.67649 13.4394 8.23968 13.0262 8.23968 12.5136ZM13.9094 15.1042V15.0673C13.2156 15.5637 12.3665 15.8176 11.4978 15.7831C10.6292 15.8178 9.78025 15.5637 9.0862 15.0673C8.99402 14.961 9.01094 14.8018 9.12264 14.7141C9.21959 14.6379 9.35797 14.6379 9.45752 14.7141C10.0446 15.1228 10.7604 15.3307 11.4881 15.2983C12.2159 15.3352 12.9341 15.1366 13.5283 14.7327C13.6351 14.6334 13.8097 14.6356 13.9142 14.7372C14.0185 14.8388 14.0161 15.0049 13.9094 15.1042ZM13.776 13.5111C13.7591 13.5111 13.7446 13.5111 13.7275 13.5111L13.7348 13.4764C13.1963 13.4764 12.7571 13.0584 12.7571 12.5458C12.7571 12.0333 13.1963 11.6153 13.7348 11.6153C14.2734 11.6153 14.7126 12.0333 14.7126 12.5458C14.7343 13.0586 14.3146 13.4902 13.776 13.5111Z" fill="white"/>
</svg>
