<svg width="21" height="20" viewBox="0 0 21 20" fill="none" xmlns="http://www.w3.org/2000/svg">
<path fill-rule="evenodd" clip-rule="evenodd" d="M10.4718 0.5C5.12504 0.5 0.802734 4.85417 0.802734 10.2409C0.802734 14.5467 3.57218 18.1916 7.41414 19.4816C7.89448 19.5786 8.07043 19.272 8.07043 19.0141C8.07043 18.7883 8.0546 18.0142 8.0546 17.2077C5.36491 17.7884 4.80481 16.0466 4.80481 16.0466C4.37256 14.9176 3.7321 14.6275 3.7321 14.6275C2.85177 14.0308 3.79622 14.0308 3.79622 14.0308C4.77274 14.0953 5.28515 15.0306 5.28515 15.0306C6.14945 16.5142 7.54219 16.095 8.10249 15.837C8.18245 15.208 8.43875 14.7726 8.71089 14.5307C6.56567 14.3049 4.30863 13.4663 4.30863 9.7247C4.30863 8.6603 4.69259 7.78947 5.30098 7.1122C5.20499 6.87034 4.86873 5.87027 5.39717 4.53176C5.39717 4.53176 6.21358 4.27368 8.0544 5.53164C8.84252 5.31841 9.6553 5.20994 10.4718 5.20903C11.2882 5.20903 12.1204 5.32204 12.8889 5.53164C14.7299 4.27368 15.5463 4.53176 15.5463 4.53176C16.0748 5.87027 15.7383 6.87034 15.6423 7.1122C16.2668 7.78947 16.6349 8.6603 16.6349 9.7247C16.6349 13.4663 14.3778 14.2887 12.2166 14.5307C12.5689 14.8371 12.8729 15.4176 12.8729 16.3369C12.8729 17.6431 12.857 18.6915 12.857 19.0139C12.857 19.272 13.0332 19.5786 13.5133 19.4818C17.3553 18.1914 20.1247 14.5467 20.1247 10.2409C20.1406 4.85417 15.8024 0.5 10.4718 0.5Z" fill="white"/>
</svg>
