<svg width="999" height="656" viewBox="0 0 999 656" fill="none" xmlns="http://www.w3.org/2000/svg">
<path fill-rule="evenodd" clip-rule="evenodd" d="M50.5838 215.583V160.416H0V159.584H50.5838V104.417H0V103.584H50.5838V48.4171H0V47.5846H50.5838V0H51.4163V47.5846H106.584V0H107.416V47.5846H162.584V0H163.416V47.5846H218.584V0H219.416V47.5846L274.584 47.5846V0H275.416V47.5846H330.584V0H331.416V47.5846H386.584V0H387.416V47.5846H442.584V0H443.416V47.5846H499.584V0H500.416V47.5846H555.584V0H556.416V47.5846H611.584V0H612.416V47.5846H667.584V0H668.416V47.5846H723.584V0H724.416V47.5846L779.584 47.5846V0H780.416V47.5846H835.584V0H836.416V47.5846H891.584V0H892.416V47.5846H947.584V0H948.416V47.5846H999V48.4171H948.416V103.584H999V104.417H948.416V159.584H999V160.416H948.416V215.583H999V216.415H948.416V271.583H999V272.415H948.416V327.584H999V328.416H948.416V384.584H999V385.416H948.416V440.583H999V441.415H948.416V496.584H999V497.416H948.416V552.585H999V553.417H948.416V608.586H999V609.418H948.416V656H947.584V609.418H892.416V656H891.584V609.418H836.416V656H835.584V609.418H780.416V656H779.584V609.418H724.416V656H723.584V609.418H668.416V656H667.584V609.418H612.416V656H611.584V609.418H556.416V656H555.584V609.418H500.416V656H499.584V609.418H443.416V656H442.584V609.418H387.416V656H386.584V609.418H331.416V656H330.584V609.418H275.416V656H274.584V609.418H219.416V656H218.584V609.418H163.416V656H162.584V609.418H107.416V656H106.584V609.418H51.4163V656H50.5838V609.418H0V608.586H50.5838V553.417H0V552.585H50.5838V497.416H0V496.584H50.5838V441.415H0V440.583H50.5838V385.416H0V384.584H50.5838V328.416H0V327.584H50.5838V272.415H0V271.583H50.5838V216.415H0V215.583H50.5838ZM51.4163 608.586H106.584V553.417H51.4163V608.586ZM107.416 608.586H162.584V553.417H107.416V608.586ZM163.416 608.586H218.584V553.417H163.416V608.586ZM219.416 608.586H274.584V553.417H219.416V608.586ZM275.416 608.586H330.584V553.417H275.416V608.586ZM331.416 608.586H386.584V553.417H331.416V608.586ZM387.416 608.586H442.584V553.417H387.416V608.586ZM443.416 608.586H499.584V553.417H443.416V608.586ZM500.416 608.586H555.584V553.417H500.416V608.586ZM556.416 608.586H611.584V553.417H556.416V608.586ZM612.416 608.586H667.584V553.417H612.416V608.586ZM668.416 608.586H723.584V553.417H668.416V608.586ZM724.416 608.586H779.584V553.417H724.416V608.586ZM780.416 608.586H835.584V553.417H780.416V608.586ZM836.416 608.586H891.584V553.417H836.416V608.586ZM892.416 608.586H947.584V553.417H892.416V608.586ZM947.584 497.416V552.585H892.416V497.416H947.584ZM891.584 497.416V552.585H836.416V497.416H891.584ZM835.584 497.416V552.585H780.416V497.416H835.584ZM779.584 497.416V552.585H724.416V497.416H779.584ZM723.584 497.416V552.585H668.416V497.416H723.584ZM667.584 497.416V552.585H612.416V497.416H667.584ZM611.584 497.416V552.585H556.416V497.416H611.584ZM555.584 497.416V552.585H500.416V497.416H555.584ZM499.584 497.416V552.585H443.416V497.416L499.584 497.416ZM442.584 497.416V552.585H387.416V497.416H442.584ZM386.584 497.416V552.585H331.416V497.416H386.584ZM330.584 497.416V552.585H275.416V497.416H330.584ZM274.584 497.416V552.585H219.416V497.416H274.584ZM218.584 497.416V552.585H163.416V497.416H218.584ZM162.584 497.416V552.585H107.416V497.416H162.584ZM106.584 497.416V552.585H51.4163V497.416H106.584ZM51.4163 496.584H106.584V441.415H51.4163V496.584ZM107.416 496.584H162.584V441.415H107.416V496.584ZM163.416 496.584H218.584V441.415H163.416V496.584ZM219.416 496.584H274.584V441.415H219.416V496.584ZM275.416 496.584H330.584V441.415H275.416V496.584ZM331.416 496.584H386.584V441.415H331.416V496.584ZM387.416 496.584H442.584V441.415H387.416V496.584ZM443.416 496.584H499.584V441.415L443.416 441.415V496.584ZM500.416 496.584H555.584V441.415H500.416V496.584ZM556.416 496.584H611.584V441.415H556.416V496.584ZM612.416 496.584H667.584V441.415H612.416V496.584ZM668.416 496.584H723.584V441.415H668.416V496.584ZM724.416 496.584H779.584V441.415H724.416V496.584ZM780.416 496.584H835.584V441.415H780.416V496.584ZM836.416 496.584H891.584V441.415H836.416V496.584ZM892.416 496.584H947.584V441.415H892.416V496.584ZM947.584 385.416V440.583H892.416V385.416H947.584ZM891.584 385.416V440.583H836.416V385.416H891.584ZM835.584 385.416V440.583H780.416V385.416H835.584ZM779.584 385.416V440.583H724.416V385.416H779.584ZM723.584 385.416V440.583H668.416V385.416H723.584ZM667.584 385.416V440.583H612.416V385.416H667.584ZM611.584 385.416V440.583H556.416V385.416H611.584ZM555.584 385.416V440.583H500.416V385.416H555.584ZM499.584 385.416V440.583H443.416V385.416L499.584 385.416ZM442.584 385.416V440.583H387.416V385.416H442.584ZM386.584 385.416V440.583H331.416V385.416H386.584ZM330.584 385.416V440.583H275.416V385.416H330.584ZM274.584 385.416V440.583H219.416V385.416H274.584ZM218.584 385.416V440.583H163.416V385.416H218.584ZM162.584 385.416V440.583H107.416V385.416H162.584ZM106.584 385.416V440.583H51.4163V385.416H106.584ZM51.4163 384.584H106.584V328.416H51.4163V384.584ZM107.416 384.584H162.584V328.416H107.416V384.584ZM163.416 384.584H218.584V328.416H163.416V384.584ZM219.416 384.584H274.584V328.416H219.416V384.584ZM275.416 384.584H330.584V328.416H275.416V384.584ZM331.416 384.584H386.584V328.416H331.416V384.584ZM387.416 384.584H442.584V328.416H387.416V384.584ZM443.416 384.584H499.584V328.416L443.416 328.416V384.584ZM500.416 384.584H555.584V328.416H500.416V384.584ZM556.416 384.584H611.584V328.416H556.416V384.584ZM612.416 384.584H667.584V328.416H612.416V384.584ZM668.416 384.584H723.584V328.416H668.416V384.584ZM724.416 384.584H779.584V328.416H724.416V384.584ZM780.416 384.584H835.584V328.416H780.416V384.584ZM836.416 384.584H891.584V328.416H836.416V384.584ZM892.416 384.584H947.584V328.416H892.416V384.584ZM947.584 272.415V327.584H892.416V272.415H947.584ZM891.584 272.415V327.584H836.416V272.415H891.584ZM835.584 272.415V327.584H780.416V272.415H835.584ZM779.584 272.415V327.584H724.416V272.415H779.584ZM723.584 272.415V327.584H668.416V272.415H723.584ZM667.584 272.415V327.584H612.416V272.415H667.584ZM611.584 272.415V327.584H556.416V272.415H611.584ZM555.584 272.415V327.584H500.416V272.415H555.584ZM499.584 272.415V327.584H443.416V272.415L499.584 272.415ZM442.584 272.415V327.584H387.416V272.415H442.584ZM386.584 272.415V327.584H331.416V272.415H386.584ZM330.584 272.415V327.584H275.416V272.415H330.584ZM274.584 272.415V327.584H219.416V272.415H274.584ZM218.584 272.415V327.584H163.416V272.415H218.584ZM162.584 272.415V327.584H107.416V272.415H162.584ZM106.584 272.415V327.584H51.4163V272.415H106.584ZM51.4163 271.583H106.584V216.415H51.4163V271.583ZM107.416 271.583H162.584V216.415H107.416V271.583ZM163.416 271.583H218.584V216.415H163.416V271.583ZM219.416 271.583H274.584V216.415H219.416V271.583ZM275.416 271.583H330.584V216.415H275.416V271.583ZM331.416 271.583H386.584V216.415H331.416V271.583ZM387.416 271.583H442.584V216.415H387.416V271.583ZM443.416 271.583H499.584V216.415H443.416V271.583ZM500.416 271.583H555.584V216.415H500.416V271.583ZM556.416 271.583H611.584V216.415H556.416V271.583ZM612.416 271.583H667.584V216.415H612.416V271.583ZM668.416 271.583H723.584V216.415H668.416V271.583ZM724.416 271.583H779.584V216.415H724.416V271.583ZM780.416 271.583H835.584V216.415H780.416V271.583ZM836.416 271.583H891.584V216.415H836.416V271.583ZM892.416 271.583H947.584V216.415H892.416V271.583ZM51.4163 103.584V48.4171H106.584V103.584H51.4163ZM107.416 103.584V48.4171H162.584V103.584H107.416ZM163.416 103.584V48.4171H218.584V103.584H163.416ZM219.416 103.584V48.4171L274.584 48.4171V103.584H219.416ZM275.416 103.584V48.4171H330.584V103.584H275.416ZM331.416 103.584V48.4171H386.584V103.584H331.416ZM387.416 103.584V48.4171H442.584V103.584H387.416ZM443.416 103.584V48.4171H499.584V103.584L443.416 103.584ZM500.416 103.584V48.4171H555.584V103.584H500.416ZM556.416 103.584V48.4171H611.584V103.584H556.416ZM612.416 103.584V48.4171H667.584V103.584H612.416ZM668.416 103.584V48.4171H723.584V103.584H668.416ZM724.416 103.584V48.4171L779.584 48.4171V103.584H724.416ZM780.416 103.584V48.4171H835.584V103.584H780.416ZM836.416 103.584V48.4171H891.584V103.584H836.416ZM892.416 103.584V48.4171H947.584V103.584H892.416ZM947.584 104.417H892.416V159.584H947.584V104.417ZM891.584 104.417H836.416V159.584H891.584V104.417ZM835.584 104.417H780.416V159.584H835.584V104.417ZM779.584 104.417H724.416V159.584H779.584V104.417ZM723.584 104.417H668.416V159.584H723.584V104.417ZM667.584 104.417H612.416V159.584H667.584V104.417ZM611.584 104.417H556.416V159.584H611.584V104.417ZM555.584 104.417H500.416V159.584H555.584V104.417ZM499.584 104.417L443.416 104.417V159.584H499.584V104.417ZM442.584 104.417H387.416V159.584H442.584V104.417ZM386.584 104.417H331.416V159.584H386.584V104.417ZM330.584 104.417H275.416V159.584H330.584V104.417ZM274.584 104.417H219.416V159.584H274.584V104.417ZM218.584 104.417H163.416V159.584H218.584V104.417ZM162.584 104.417H107.416V159.584H162.584V104.417ZM106.584 104.417H51.4163V159.584H106.584V104.417ZM51.4163 215.583V160.416H106.584V215.583H51.4163ZM107.416 215.583V160.416H162.584V215.583H107.416ZM163.416 215.583V160.416H218.584V215.583H163.416ZM219.416 215.583V160.416H274.584V215.583H219.416ZM275.416 215.583V160.416H330.584V215.583H275.416ZM331.416 215.583V160.416H386.584V215.583H331.416ZM387.416 215.583V160.416H442.584V215.583H387.416ZM443.416 215.583V160.416L499.584 160.416V215.583L443.416 215.583ZM500.416 215.583V160.416H555.584V215.583H500.416ZM556.416 215.583V160.416H611.584V215.583H556.416ZM612.416 215.583V160.416H667.584V215.583H612.416ZM668.416 215.583V160.416H723.584V215.583H668.416ZM724.416 215.583V160.416H779.584V215.583H724.416ZM780.416 215.583V160.416H835.584V215.583H780.416ZM836.416 215.583V160.416H891.584V215.583H836.416ZM892.416 215.583V160.416H947.584V215.583H892.416Z" fill="url(#paint0_radial_73_130)" fill-opacity="0.8"/>
<defs>
<radialGradient id="paint0_radial_73_130" cx="0" cy="0" r="1" gradientUnits="userSpaceOnUse" gradientTransform="translate(510.238 310.5) rotate(90) scale(302 302)">
<stop stop-color="#C881FF"/>
<stop offset="0.271335" stop-color="#C881FF" stop-opacity="0.79"/>
<stop offset="0.53504" stop-color="#AF47FF" stop-opacity="0.46"/>
<stop offset="1" stop-color="#070707" stop-opacity="0.6"/>
</radialGradient>
</defs>
</svg>
