<svg width="280" height="283" viewBox="0 0 280 283" fill="none" xmlns="http://www.w3.org/2000/svg">
<path fill-rule="evenodd" clip-rule="evenodd" d="M26.799 29.4223V84.7745H5.82077e-08L0 85.607H26.799V140.959H5.82077e-08L0 141.792H26.799V197.144H5.82077e-08L0 197.976H26.799V253.328H5.82077e-08L0 254.161H26.799V282.127H27.6315V254.161H82.9838V282.127H83.8163V254.161H139.168V282.127H140.001V254.161H195.353V282.127H196.185V254.161H251.537V282.127H252.37V254.161H279.167V253.328H252.37V197.976H279.167V197.144H252.37V141.792H279.167V140.959H252.37V85.607H279.167V84.7745H252.37V29.4223H279.167V28.5898H252.37V0.0358887H251.537V28.5898L196.185 28.5898V0.0358887H195.353V28.5898L140.001 28.5898V0.0358887H139.168V28.5898L83.8163 28.5898V0.0358887H82.9838V28.5898L27.6315 28.5898V0.0358887H26.799V28.5898H5.82077e-08L0 29.4223H26.799ZM251.537 253.328V197.976H196.185V253.328H251.537ZM195.353 253.328V197.976H140.001V253.328H195.353ZM139.168 253.328V197.976H83.8163V253.328H139.168ZM82.9838 253.328V197.976H27.6315V253.328H82.9838ZM82.9838 197.144H27.6315V141.792H82.9838V197.144ZM139.168 197.144H83.8163V141.792H139.168V197.144ZM195.353 197.144H140.001V141.792H195.353V197.144ZM251.537 197.144H196.185V141.792H251.537V197.144ZM251.537 140.959V85.607H196.185V140.959H251.537ZM195.353 140.959V85.607H140.001V140.959H195.353ZM139.168 140.959V85.607H83.8163V140.959H139.168ZM82.9838 140.959V85.607H27.6315V140.959H82.9838ZM82.9838 84.7745H27.6315V29.4223L82.9838 29.4223V84.7745ZM139.168 84.7745H83.8163V29.4223L139.168 29.4223V84.7745ZM195.353 84.7745H140.001V29.4223L195.353 29.4223V84.7745ZM251.537 84.7745H196.185V29.4223L251.537 29.4223V84.7745Z" fill="url(#paint0_radial_47_58)" fill-opacity="0.8"/>
<defs>
<radialGradient id="paint0_radial_47_58" cx="0" cy="0" r="1" gradientUnits="userSpaceOnUse" gradientTransform="translate(150.238 145.5) rotate(90) scale(141 141)">
<stop stop-color="white"/>
<stop offset="0.447917" stop-color="#AF47FF"/>
<stop offset="1" stop-color="#070707"/>
</radialGradient>
</defs>
</svg>
