<svg width="16" height="16" viewBox="0 0 16 16" fill="none" xmlns="http://www.w3.org/2000/svg">
<path d="M8.00019 10.6703C11.8663 10.6703 15.0004 9.4748 15.0004 8.00003C15.0004 6.52525 11.8663 5.32971 8.00019 5.32971C4.13409 5.32971 1 6.52525 1 8.00003C1 9.4748 4.13409 10.6703 8.00019 10.6703Z" stroke="white"/>
<path d="M5.68512 9.33517C7.61817 12.6802 10.2216 14.7941 11.4999 14.0567C12.7783 13.3193 12.2476 10.0099 10.3145 6.66486C8.3815 3.31983 5.77812 1.20592 4.49974 1.94331C3.22136 2.6807 3.75207 5.99015 5.68512 9.33517Z" stroke="white"/>
<path d="M5.68493 6.66483C3.75188 10.0099 3.22117 13.3193 4.49955 14.0567C5.77793 14.7941 8.38131 12.6802 10.3144 9.33515C12.2474 5.99012 12.7781 2.68067 11.4997 1.94329C10.2214 1.2059 7.61798 3.31981 5.68493 6.66483Z" stroke="white"/>
</svg>
