<svg width="17" height="16" viewBox="0 0 17 16" fill="none" xmlns="http://www.w3.org/2000/svg">
<g clip-path="url(#clip0_187_189)">
<path d="M8.07343 1.2795C8.10807 1.19683 8.16707 1.12612 8.24293 1.07635C8.31878 1.02658 8.40805 1 8.49939 1C8.59073 1 8.68 1.02658 8.75586 1.07635C8.83171 1.12612 8.89071 1.19683 8.92536 1.2795L10.6661 5.37474C10.6987 5.45136 10.7522 5.51772 10.8209 5.56649C10.8895 5.61526 10.9706 5.64456 11.0552 5.65117L15.5753 6.00533C15.9841 6.03738 16.1496 6.53656 15.8383 6.79697L12.3945 9.68311C12.3302 9.73695 12.2822 9.80707 12.2559 9.88579C12.2296 9.96452 12.226 10.0488 12.2454 10.1294L13.2981 14.4442C13.3192 14.5308 13.3137 14.6215 13.2821 14.705C13.2506 14.7885 13.1944 14.861 13.1208 14.9133C13.0472 14.9656 12.9594 14.9953 12.8684 14.9988C12.7775 15.0024 12.6876 14.9794 12.61 14.933L8.73941 12.6213C8.6671 12.5782 8.58406 12.5554 8.49939 12.5554C8.41472 12.5554 8.33168 12.5782 8.25938 12.6213L4.38883 14.9338C4.31122 14.9802 4.22127 15.0032 4.13035 14.9997C4.03942 14.9961 3.9516 14.9664 3.87797 14.9141C3.80434 14.8618 3.74821 14.7893 3.71666 14.7058C3.68512 14.6223 3.67957 14.5316 3.70073 14.445L4.75336 10.1294C4.77288 10.0488 4.76929 9.96449 4.74299 9.88575C4.71668 9.80701 4.66868 9.73689 4.60427 9.68311L1.1605 6.79697C1.09154 6.73897 1.04165 6.66232 1.01711 6.57665C0.992566 6.49099 0.994466 6.40014 1.02257 6.31553C1.05067 6.23092 1.10373 6.15633 1.17506 6.10113C1.24639 6.04594 1.33281 6.01261 1.42346 6.00533L5.9436 5.65117C6.02818 5.64456 6.10925 5.61526 6.1779 5.56649C6.24655 5.51772 6.30012 5.45136 6.3327 5.37474L8.07343 1.2795Z" stroke="white" stroke-linecap="round" stroke-linejoin="round"/>
</g>
<defs>
<clipPath id="clip0_187_189">
<rect width="16" height="16" fill="white" transform="translate(0.5)"/>
</clipPath>
</defs>
</svg>
