<svg width="67" height="14" viewBox="0 0 67 14" fill="none" xmlns="http://www.w3.org/2000/svg">
<path d="M3.64455 11.142C2.49605 11.142 0.964732 10.8093 0.0459397 10.3708V7.80009H0.229698C0.964732 8.2235 2.37355 8.66203 3.62923 8.66203C4.36427 8.66203 5.17587 8.51081 5.17587 7.86058C5.17587 6.92303 4.07332 7.044 2.61856 6.56011C1.11786 6.04597 0 5.22939 0 3.61137C0 1.17677 1.92947 0.254342 4.62459 0.254342C5.4515 0.254342 6.76844 0.420682 7.54941 0.813847V3.36942H7.36566C6.67656 2.97625 5.22181 2.64358 4.27239 2.64358C3.53735 2.64358 3.04733 2.80992 3.04733 3.46015C3.04733 4.17087 3.99675 4.27672 4.7471 4.45819C6.70719 4.88159 8.23851 5.74353 8.23851 7.63375C8.23851 10.1591 6.41624 11.142 3.64455 11.142Z" fill="white"/>
<path d="M11.8612 11.1269C9.68671 11.1269 8.63009 9.84152 8.63009 7.95131V3.17284H11.3405V7.36156C11.3405 8.28399 11.8152 8.75276 12.6422 8.75276C13.6069 8.75276 14.0357 8.02692 14.0357 7.14985V3.17284H16.7461V10.9H14.5869L14.3266 10.1893H14.1888C13.7141 10.7186 13.0862 11.1269 11.8612 11.1269Z" fill="white"/>
<path d="M17.2653 14V3.17284H19.1948L19.4551 3.86844H19.5929C19.9757 3.36942 20.8333 2.94601 22.1043 2.94601C24.5697 2.94601 26.0704 4.79086 26.0704 7.044C26.0704 9.31226 24.386 11.1269 22.0737 11.1269C21.2161 11.1269 20.4198 10.8093 20.0523 10.4313H19.9145V14H17.2653ZM21.6755 8.76788C22.6709 8.76788 23.4672 8.05716 23.4672 7.05912C23.4672 6.0006 22.6709 5.305 21.6908 5.305C20.7261 5.305 19.8686 6.01572 19.8686 7.05912C19.8686 8.04204 20.6955 8.76788 21.6755 8.76788Z" fill="white"/>
<path d="M34.405 6.31816C34.405 6.81718 34.359 7.31619 34.1293 7.76985H28.8463C29.1526 8.82837 30.2245 9.05519 31.1586 9.05519C32.2152 9.05519 32.9196 8.9191 33.6853 8.61666H33.869V10.4918C33.0421 10.9454 32.0774 11.142 30.7604 11.142C28.1113 11.142 26.3349 9.56933 26.3349 7.07425C26.3349 4.48843 28.1266 2.94601 30.5461 2.94601C33.0268 2.94601 34.405 4.51867 34.405 6.31816ZM32.1693 6.18206V6.10646C32.1386 5.4411 31.5261 4.85135 30.5767 4.85135C29.7804 4.85135 29.1066 5.21427 28.8616 6.18206H32.1693Z" fill="white"/>
<path d="M34.6961 10.9V3.17284H36.7633L37.0237 3.88356H37.1615C37.6209 3.3543 38.3253 2.97625 39.2288 2.94601H39.5197V5.47134H39.2135C38.2794 5.47134 37.3146 5.86451 37.3146 7.30107V10.9H34.6961Z" fill="white"/>
<path d="M39.8731 10.9V0.481169H46.7028V3.09723H42.7214V5.16891H46.2588V7.58838H42.7214V10.9H39.8731Z" fill="white"/>
<path d="M48.4995 2.90337C47.6879 2.90337 47.0141 2.26826 47.0141 1.45169C47.0141 0.619991 47.7339 0 48.4995 0C49.2958 0 49.9849 0.650234 49.9849 1.45169C49.9849 2.23802 49.3111 2.90337 48.4995 2.90337ZM47.1367 10.9V3.17284H49.8471V10.9H47.1367Z" fill="white"/>
<path d="M50.3566 10.9V3.17284H52.5158L52.7608 3.88356H52.9139C53.3733 3.3543 54.0165 2.94601 55.2415 2.94601C57.4007 2.94601 58.4726 4.23136 58.4726 6.12158V10.9H55.7622V6.71132C55.7622 5.7889 55.2722 5.32012 54.4606 5.32012C53.4805 5.32012 53.067 6.04597 53.067 6.92303V10.9H50.3566Z" fill="white"/>
<path d="M66.9118 6.31816C66.9118 6.81718 66.8658 7.31619 66.6361 7.76985H61.3531C61.6593 8.82837 62.7313 9.05519 63.6654 9.05519C64.722 9.05519 65.4264 8.9191 66.192 8.61666H66.3758V10.4918C65.5489 10.9454 64.5842 11.142 63.2672 11.142C60.618 11.142 58.8417 9.56933 58.8417 7.07425C58.8417 4.48843 60.6334 2.94601 63.0528 2.94601C65.5336 2.94601 66.9118 4.51867 66.9118 6.31816ZM64.676 6.18206V6.10646C64.6454 5.4411 64.0329 4.85135 63.0835 4.85135C62.2872 4.85135 61.6134 5.21427 61.3684 6.18206H64.676Z" fill="white"/>
</svg>
