<svg width="12" height="14" viewBox="0 0 12 14" fill="none" xmlns="http://www.w3.org/2000/svg">
<path fill-rule="evenodd" clip-rule="evenodd" d="M11.4271 1.77311C12.2986 3.16929 12.1458 4.91459 11.1727 6.13002C11.9732 7.83379 11.3925 9.9061 9.75769 10.9287L5.76412 13.4265C3.99968 14.5301 1.67551 13.993 0.572952 12.2269C-0.298654 10.8307 -0.14571 9.08538 0.827318 7.86998C0.0267366 6.16621 0.607451 4.09386 2.24233 3.0713L6.23586 0.573494C8.00031 -0.530108 10.3245 0.00697825 11.4271 1.77311ZM6.73495 1.37296C8.05828 0.545258 9.80139 0.948075 10.6283 2.27267C11.2214 3.22262 11.1823 4.38948 10.6239 5.27863C10.0348 4.58789 9.23206 4.1528 8.37727 4.01067L9.05952 3.58392L8.56045 2.78446L3.76819 5.78183L4.26727 6.5813L6.26403 5.3324C7.58737 4.5047 9.33048 4.90754 10.1574 6.23214C10.9843 7.55674 10.5819 9.30153 9.25852 10.1292L5.26503 12.6271C3.9417 13.4548 2.19857 13.0519 1.37166 11.7273C0.778645 10.7774 0.817721 9.61056 1.37611 8.72137C1.96522 9.41212 2.76795 9.84718 3.6228 9.98934L2.94065 10.416L3.43974 11.2154L8.23197 8.21809L7.73289 7.41863L5.73597 8.66762C4.41263 9.49536 2.66947 9.09245 1.84256 7.76786C1.01565 6.44326 1.41808 4.69847 2.74142 3.87077L6.73495 1.37296Z" fill="white" fill-opacity="0.6"/>
</svg>
