<svg width="24" height="18" viewBox="0 0 24 18" fill="none" xmlns="http://www.w3.org/2000/svg">
<path d="M23.7609 4.1998C23.7609 4.1998 23.5266 2.54512 22.8047 1.81855C21.8906 0.862305 20.8688 0.857617 20.4 0.801367C17.0438 0.557617 12.0047 0.557617 12.0047 0.557617H11.9953C11.9953 0.557617 6.95625 0.557617 3.6 0.801367C3.13125 0.857617 2.10938 0.862305 1.19531 1.81855C0.473438 2.54512 0.24375 4.1998 0.24375 4.1998C0.24375 4.1998 0 6.14512 0 8.08574V9.90449C0 11.8451 0.239062 13.7904 0.239062 13.7904C0.239062 13.7904 0.473437 15.4451 1.19062 16.1717C2.10469 17.1279 3.30469 17.0951 3.83906 17.1982C5.76094 17.3811 12 17.4373 12 17.4373C12 17.4373 17.0438 17.4279 20.4 17.1889C20.8688 17.1326 21.8906 17.1279 22.8047 16.1717C23.5266 15.4451 23.7609 13.7904 23.7609 13.7904C23.7609 13.7904 24 11.8498 24 9.90449V8.08574C24 6.14512 23.7609 4.1998 23.7609 4.1998ZM9.52031 12.1123V5.36699L16.0031 8.75137L9.52031 12.1123Z" fill="white"/>
</svg>
